<svg width="10" height="10" viewBox="0 0 10 10" fill="none" xmlns="http://www.w3.org/2000/svg">
<path d="M9.8245 5.42448L6.2245 9.02448C6.11178 9.1372 5.95891 9.20053 5.7995 9.20053C5.64009 9.20053 5.48722 9.1372 5.3745 9.02448C5.26178 8.91177 5.19846 8.75889 5.19846 8.59948C5.19846 8.44008 5.26178 8.2872 5.3745 8.17448L7.95 5.59998H0.6C0.44087 5.59998 0.288258 5.53677 0.175736 5.42425C0.0632141 5.31173 0 5.15911 0 4.99998C0 4.84085 0.0632141 4.68824 0.175736 4.57572C0.288258 4.4632 0.44087 4.39998 0.6 4.39998H7.95L5.3755 1.82398C5.26278 1.71127 5.19946 1.55839 5.19946 1.39898C5.19946 1.23958 5.26278 1.0867 5.3755 0.973984C5.48822 0.861267 5.64109 0.797943 5.8005 0.797943C5.95991 0.797943 6.11278 0.861267 6.2255 0.973984L9.8255 4.57398C9.88145 4.6298 9.92581 4.69612 9.95606 4.76913C9.9863 4.84215 10.0018 4.92041 10.0017 4.99944C10.0016 5.07847 9.98593 5.1567 9.95551 5.22964C9.9251 5.30258 9.88058 5.3688 9.8245 5.42448Z" fill="white"/>
</svg>
